# xmcd
#
# Track frame offsets: 
#        183
#        14873
#        33083
#        53288
#
# Disc length: 833 seconds
#
# Revision: 5
# Processed by: cddbd v1.5.2PL0 Copyright (c) Steve Scherf et al.
# Submitted via: ExactAudioCopy v0.95b3
#
DISCID=25033f04
DTITLE=Melvins - King Buzzo
DYEAR=1900
DGENRE=Blues
TTITLE0=Isabella
TTITLE1=Porg
TTITLE2=Annum
TTITLE3=Skeeter
EXTD=
EXTT0=
EXTT1=
EXTT2=
EXTT3=
PLAYORDER=
